<mxfile host="65bd71144e" modified="2021-01-29T03:25:39.504Z" agent="5.0 (Windows NT 6.1; Win64; x64) AppleWebKit/537.36 (KHTML, like Gecko) Code/1.51.1 Chrome/83.0.4103.122 Electron/9.3.3 Safari/537.36" etag="gtUvxpOEnQ-KWslfLNdJ" version="13.10.0" type="embed">
    <diagram id="6hGFLwfOUW9BJ-s0fimq" name="Page-1">
        <mxGraphModel dx="2736" dy="910" grid="1" gridSize="10" guides="1" tooltips="1" connect="1" arrows="1" fold="1" page="1" pageScale="1" pageWidth="827" pageHeight="1169" math="0" shadow="0">
            <root>
                <mxCell id="0"/>
                <mxCell id="1" parent="0"/>
                <mxCell id="49" value="CSS" style="rounded=1;whiteSpace=wrap;html=1;" parent="1" vertex="1">
                    <mxGeometry x="-1480" y="20" width="410" height="30" as="geometry"/>
                </mxCell>
                <mxCell id="55" value="@keyframes" style="rounded=1;whiteSpace=wrap;html=1;" parent="1" vertex="1">
                    <mxGeometry x="-1640" y="490" width="90" height="30" as="geometry"/>
                </mxCell>
                <mxCell id="56" value="动画" style="rounded=1;whiteSpace=wrap;html=1;" parent="1" vertex="1">
                    <mxGeometry x="-1625" y="450" width="145" height="30" as="geometry"/>
                </mxCell>
                <mxCell id="58" value="animation" style="rounded=1;whiteSpace=wrap;html=1;" parent="1" vertex="1">
                    <mxGeometry x="-1535" y="490" width="80" height="30" as="geometry"/>
                </mxCell>
                <mxCell id="59" value="flex" style="rounded=1;whiteSpace=wrap;html=1;" parent="1" vertex="1">
                    <mxGeometry x="-1420" y="130" width="80" height="30" as="geometry"/>
                </mxCell>
                <mxCell id="62" value="box-sizing" style="rounded=1;whiteSpace=wrap;html=1;" parent="1" vertex="1">
                    <mxGeometry x="-1420" y="180" width="80" height="30" as="geometry"/>
                </mxCell>
                <mxCell id="63" value="移动端1px边框" style="rounded=1;whiteSpace=wrap;html=1;" parent="1" vertex="1">
                    <mxGeometry x="-1370" y="690" width="160" height="30" as="geometry"/>
                </mxCell>
                <mxCell id="65" value="transform" style="rounded=1;whiteSpace=wrap;html=1;" parent="1" vertex="1">
                    <mxGeometry x="-1310" y="450" width="110" height="30" as="geometry"/>
                </mxCell>
                <mxCell id="67" value="选择器" style="rounded=1;whiteSpace=wrap;html=1;" parent="1" vertex="1">
                    <mxGeometry x="-1600" y="270" width="150" height="30" as="geometry"/>
                </mxCell>
                <mxCell id="68" value="相邻兄弟&amp;nbsp; +" style="rounded=1;whiteSpace=wrap;html=1;" parent="1" vertex="1">
                    <mxGeometry x="-1520" y="310" width="80" height="30" as="geometry"/>
                </mxCell>
                <mxCell id="69" value="子代&amp;nbsp; &amp;gt;" style="rounded=1;whiteSpace=wrap;html=1;" parent="1" vertex="1">
                    <mxGeometry x="-1625" y="310" width="80" height="30" as="geometry"/>
                </mxCell>
                <mxCell id="70" value="nth-child" style="rounded=1;whiteSpace=wrap;html=1;" parent="1" vertex="1">
                    <mxGeometry x="-1520" y="350" width="80" height="30" as="geometry"/>
                </mxCell>
                <mxCell id="71" value="后代" style="rounded=1;whiteSpace=wrap;html=1;" parent="1" vertex="1">
                    <mxGeometry x="-1625" y="350" width="80" height="30" as="geometry"/>
                </mxCell>
                <mxCell id="72" value="字体" style="rounded=1;whiteSpace=wrap;html=1;" parent="1" vertex="1">
                    <mxGeometry x="-1230" y="300" width="80" height="30" as="geometry"/>
                </mxCell>
                <mxCell id="73" value="white-space:nowrap" style="rounded=1;whiteSpace=wrap;html=1;" parent="1" vertex="1">
                    <mxGeometry x="-1240" y="340" width="190" height="30" as="geometry"/>
                </mxCell>
                <mxCell id="75" value="background" style="rounded=1;whiteSpace=wrap;html=1;" parent="1" vertex="1">
                    <mxGeometry x="-1632.5" y="580" width="192.5" height="30" as="geometry"/>
                </mxCell>
                <mxCell id="77" value="规定背景的绘制区域:&amp;nbsp;&amp;nbsp;background-clip" style="rounded=1;whiteSpace=wrap;html=1;" parent="1" vertex="1">
                    <mxGeometry x="-1640" y="630" width="180" height="30" as="geometry"/>
                </mxCell>
                <mxCell id="78" value="根据内容框来定位背景: background-origin" style="rounded=1;whiteSpace=wrap;html=1;" parent="1" vertex="1">
                    <mxGeometry x="-1645" y="680" width="190" height="30" as="geometry"/>
                </mxCell>
                <mxCell id="80" value="background-size" style="rounded=1;whiteSpace=wrap;html=1;" parent="1" vertex="1">
                    <mxGeometry x="-1635" y="730" width="185" height="30" as="geometry"/>
                </mxCell>
                <mxCell id="81" value="@media screen and&lt;br&gt;&amp;nbsp;(min-width:960px) &lt;br&gt;and (max-width:1200px)" style="rounded=1;whiteSpace=wrap;html=1;" parent="1" vertex="1">
                    <mxGeometry x="-1632.5" y="850" width="210" height="70" as="geometry"/>
                </mxCell>
                <mxCell id="82" value="不小于960px 不大于1200px" style="rounded=1;whiteSpace=wrap;html=1;" parent="1" vertex="1">
                    <mxGeometry x="-1632.5" y="810" width="200" height="30" as="geometry"/>
                </mxCell>
                <mxCell id="83" value="平移 translate" style="rounded=1;whiteSpace=wrap;html=1;" parent="1" vertex="1">
                    <mxGeometry x="-1310" y="500" width="140" height="30" as="geometry"/>
                </mxCell>
                <mxCell id="84" value="旋转 rotate" style="rounded=1;whiteSpace=wrap;html=1;" parent="1" vertex="1">
                    <mxGeometry x="-1310" y="600" width="140" height="30" as="geometry"/>
                </mxCell>
                <mxCell id="85" value="缩放 scale" style="rounded=1;whiteSpace=wrap;html=1;" parent="1" vertex="1">
                    <mxGeometry x="-1310" y="550" width="150" height="30" as="geometry"/>
                </mxCell>
                <mxCell id="86" value="伪元素&lt;br&gt;attr 抓取data-*属性适配content" style="rounded=1;whiteSpace=wrap;html=1;" vertex="1" parent="1">
                    <mxGeometry x="-1370" y="730" width="260" height="30" as="geometry"/>
                </mxCell>
            </root>
        </mxGraphModel>
    </diagram>
</mxfile>